<svg id="Capa_1" enable-background="new 0 0 512 512" height="512" viewBox="0 0 512 512" width="512" xmlns="http://www.w3.org/2000/svg"><g><g><path d="m275.04 512h-52.649c-9.103 0-17.15-5.916-19.866-14.605l-5.842-18.696h104.065l-5.842 18.696c-2.716 8.689-10.763 14.605-19.866 14.605z" fill="#4172ca"/></g><g><path d="m276.813 478.699-5.842 18.696c-2.716 8.689-10.763 14.605-19.866 14.605h23.935c9.103 0 17.15-5.916 19.866-14.605l5.842-18.696z" fill="#3a67c1"/></g><g><path d="m304.911 478.699h-112.391c-9.196 0-16.65-7.455-16.65-16.65 0-9.196 7.455-16.65 16.65-16.65h112.39c9.196 0 16.65 7.455 16.65 16.65.001 9.196-7.454 16.65-16.649 16.65z" fill="#bed9fd"/></g><g><path d="m304.911 445.398h-112.391c-9.196 0-16.65-7.455-16.65-16.65 0-9.196 7.455-16.65 16.65-16.65h112.39c9.196 0 16.65 7.455 16.65 16.65.001 9.196-7.454 16.65-16.649 16.65z" fill="#ddebfd"/></g><g><path d="m425.626 176.911c0-98.166-79.955-177.658-178.295-176.905-97.35.744-176.311 81.021-175.52 178.371.473 58.2 29.052 109.696 72.828 141.594 13.662 9.955 23.976 23.825 29.56 39.78l18.321 52.347h112.39l18.167-51.905c5.605-16.015 15.795-30.107 29.522-40.081 44.253-32.155 73.027-84.315 73.027-143.201z" fill="#f7e365"/></g><g><path d="m291.856 5.298c40.644 34.484 66.446 85.927 66.446 143.404 0 103.828-84.169 187.996-187.996 187.996-2.925 0-5.832-.076-8.724-.208 5.386 6.995 9.668 14.833 12.618 23.262l18.321 52.347h112.39l18.167-51.905c5.605-16.015 15.795-30.107 29.522-40.081 44.253-32.154 73.027-84.315 73.027-143.201-.001-82.826-56.917-152.356-133.771-171.614z" fill="#f3d332"/></g><g><g><circle cx="360.065" cy="431.87" fill="#b7e546" r="80.13"/></g></g><g><g><g><path d="m407.159 421.398c-1.919 0-3.839-.732-5.304-2.197-23.041-23.042-60.536-23.043-83.581 0-2.93 2.929-7.678 2.929-10.607 0s-2.929-7.678 0-10.606c28.893-28.892 75.903-28.894 104.796 0 2.929 2.929 2.929 7.678 0 10.606-1.465 1.465-3.385 2.197-5.304 2.197z" fill="#ddebfd"/></g><g><path d="m383.612 444.945c-1.919 0-3.839-.732-5.304-2.197-10.058-10.059-26.428-10.061-36.487 0-2.93 2.929-7.678 2.929-10.607 0s-2.929-7.678 0-10.606c15.909-15.909 41.795-15.907 57.702 0 2.929 2.929 2.929 7.678 0 10.606-1.465 1.465-3.385 2.197-5.304 2.197z" fill="#ddebfd"/></g></g><g><circle cx="360.065" cy="460.992" fill="#ddebfd" r="8.325"/></g></g><path d="m298.667 164.208c-22.498 0-40.801 18.303-40.801 40.801v207.089h15v-207.09c0-14.227 11.574-25.801 25.801-25.801s25.801 11.574 25.801 25.801c0 7.158-2.863 13.812-8.063 18.737-3.008 2.848-3.137 7.595-.288 10.603 2.848 3.008 7.595 3.135 10.603.288 8.103-7.674 12.749-18.473 12.749-29.627-.001-22.498-18.304-40.801-40.802-40.801z" fill="#e9a761"/><path d="m198.765 164.208c-22.498 0-40.801 18.303-40.801 40.801 0 11.156 4.646 21.955 12.748 29.627 3.007 2.848 7.754 2.72 10.603-.288 2.849-3.007 2.72-7.754-.288-10.603-5.199-4.924-8.062-11.579-8.062-18.737 0-14.227 11.574-25.801 25.801-25.801s25.801 11.574 25.801 25.801v207.089h15v-207.089c-.002-22.497-18.304-40.8-40.802-40.8z" fill="#e9a761"/><g><path d="m275.767 254.135c-1.596 0-3.204-.507-4.567-1.556l-22.483-17.295-22.485 17.295c-3.283 2.525-7.993 1.911-10.517-1.372-2.525-3.283-1.911-7.992 1.371-10.518l27.059-20.813c2.695-2.073 6.448-2.073 9.146 0l27.057 20.813c3.283 2.526 3.896 7.234 1.371 10.518-1.479 1.92-3.703 2.928-5.952 2.928z" fill="#e69642"/></g></g></svg>